<svg width="179" height="194" viewBox="0 0 179 194" fill="none" xmlns="http://www.w3.org/2000/svg">
<g clip-path="url(#clip0_4_126)">
<path d="M121.329 150.888C127.011 145.526 129.941 137.495 126.888 130.7C122.444 137.537 115.128 142.921 106.646 145.598C103.342 146.64 99.543 147.5 97.746 150.13C96.6279 151.766 96.5465 153.815 97.0502 155.667C97.554 157.52 98.5913 159.224 99.6183 160.905L99.6242 161.38C107.665 159.33 115.646 156.249 121.329 150.888Z" fill="#F2F2F2"/>
<path d="M126.717 130.737C125.759 136.653 122.624 142.342 117.831 146.63C116.79 147.6 115.61 148.407 114.329 149.023C113.01 149.609 111.573 149.875 110.134 149.8C108.777 149.757 107.396 149.576 106.051 149.821C105.391 149.937 104.762 150.185 104.2 150.551C103.639 150.916 103.156 151.392 102.782 151.948C101.891 153.263 101.595 154.778 101.364 156.268C101.109 157.922 100.873 159.644 99.7862 161.067C99.6545 161.24 99.9695 161.408 100.101 161.236C101.992 158.759 101.359 155.595 102.635 152.924C103.23 151.678 104.261 150.581 105.801 150.205C107.147 149.876 108.572 150.061 109.945 150.115C111.352 150.205 112.762 149.991 114.08 149.489C115.392 148.932 116.606 148.166 117.675 147.221C120.014 145.217 122.014 142.845 123.595 140.198C125.349 137.298 126.534 134.089 127.086 130.743C127.12 130.539 126.75 130.534 126.717 130.737V130.737Z" fill="white"/>
<path d="M119.473 145.308C120.449 145.914 121.589 146.2 122.735 146.127C123.881 146.054 124.975 145.624 125.866 144.898C126.035 144.753 125.783 144.518 125.614 144.663C124.786 145.341 123.766 145.74 122.7 145.807C121.633 145.873 120.572 145.603 119.666 145.033C119.475 144.911 119.283 145.185 119.473 145.308Z" fill="white"/>
<path d="M110.818 149.901C110.628 148.868 110.659 147.805 110.908 146.785C111.157 145.764 111.619 144.808 112.264 143.979C112.395 143.806 112.08 143.638 111.949 143.811C111.28 144.674 110.802 145.67 110.545 146.733C110.288 147.796 110.259 148.901 110.459 149.976C110.498 150.18 110.857 150.104 110.818 149.901Z" fill="white"/>
<path d="M124.881 137.212C124.478 137.068 124.118 136.823 123.836 136.501C123.554 136.179 123.359 135.789 123.269 135.37C123.233 135.165 122.874 135.242 122.91 135.445C123.012 135.908 123.228 136.337 123.538 136.694C123.849 137.05 124.244 137.323 124.688 137.486C124.73 137.507 124.778 137.513 124.824 137.504C124.87 137.494 124.912 137.469 124.942 137.433C124.954 137.415 124.962 137.394 124.966 137.373C124.97 137.351 124.968 137.329 124.963 137.308C124.957 137.287 124.946 137.268 124.932 137.251C124.918 137.234 124.901 137.221 124.881 137.212Z" fill="white"/>
<path d="M99.9427 122.975C99.9613 123.104 99.9798 123.232 99.9961 123.363C100.235 125.088 100.313 126.831 100.229 128.571C100.225 128.706 100.218 128.842 100.21 128.976C99.9424 133.209 98.7915 137.338 96.8316 141.096C96.0343 142.631 95.1135 144.098 94.0785 145.482C92.6364 147.414 90.8963 149.409 90.2893 151.58C90.2233 151.805 90.1731 152.034 90.1393 152.266L98.9579 161.35C98.9898 161.362 99.0195 161.375 99.0515 161.387L99.3846 161.764C99.4442 161.695 99.5044 161.623 99.564 161.554C99.5988 161.514 99.6316 161.472 99.6664 161.432C99.689 161.405 99.7115 161.378 99.7336 161.354C99.7411 161.345 99.7486 161.336 99.7538 161.329C99.7759 161.305 99.7936 161.282 99.8134 161.26C100.151 160.855 100.486 160.448 100.818 160.037C100.82 160.035 100.82 160.035 100.821 160.032C103.343 156.9 105.586 153.557 107.176 150.024C107.224 149.917 107.274 149.809 107.318 149.699C108.02 148.115 108.576 146.47 108.978 144.785C109.193 143.869 109.354 142.942 109.462 142.008C109.734 139.598 109.569 137.157 108.975 134.805C107.787 130.093 104.882 125.764 100.295 123.171C100.178 123.104 100.062 123.04 99.9427 122.975Z" fill="#F2F2F2"/>
<path d="M99.8301 123.093C103.156 128.32 104.586 134.505 103.724 140.442C103.568 141.749 103.182 143.018 102.583 144.189C101.916 145.366 100.945 146.34 99.7705 147.009C98.6576 147.685 97.4293 148.265 96.5247 149.165C96.0797 149.604 95.7446 150.141 95.5468 150.734C95.3489 151.328 95.2939 151.959 95.3863 152.578C95.5831 154.094 96.3942 155.459 97.2405 156.77C98.1803 158.225 99.1828 159.723 99.2991 161.429C99.3132 161.636 99.6808 161.605 99.6667 161.399C99.4644 158.43 96.7711 156.235 95.9434 153.434C95.5572 152.127 95.621 150.711 96.5905 149.603C97.4383 148.634 98.7043 148.035 99.838 147.359C100.997 146.718 101.981 145.802 102.706 144.691C103.37 143.554 103.812 142.3 104.008 140.996C104.49 138.108 104.446 135.157 103.879 132.285C103.234 128.948 101.962 125.765 100.13 122.905C100.015 122.725 99.716 122.914 99.8301 123.093Z" fill="white"/>
<path d="M104.121 138.525C106.537 138.503 108.597 136.925 108.943 134.847C108.977 134.642 108.613 134.586 108.579 134.791C108.255 136.739 106.344 138.184 104.086 138.205C103.848 138.207 103.885 138.527 104.121 138.525Z" fill="white"/>
<path d="M100.387 146.73C99.5512 146.063 98.8598 145.233 98.3543 144.29C97.8488 143.346 97.5399 142.31 97.4461 141.244C97.4312 141.037 97.0637 141.068 97.0786 141.274C97.1786 142.384 97.5025 143.462 98.0308 144.443C98.5591 145.423 99.2807 146.286 100.152 146.979C100.325 147.121 100.559 146.872 100.387 146.73V146.73Z" fill="white"/>
<path d="M102.841 129.226C102.395 129.317 101.934 129.308 101.492 129.2C101.049 129.092 100.636 128.887 100.281 128.6C100.111 128.456 99.8768 128.705 100.046 128.849C100.439 129.164 100.896 129.389 101.385 129.51C101.874 129.63 102.383 129.643 102.877 129.546C102.975 129.527 103.052 129.465 103.043 129.371C103.034 129.325 103.008 129.285 102.971 129.258C102.933 129.231 102.887 129.22 102.841 129.226V129.226Z" fill="white"/>
<path d="M79.5082 161.11C68.5323 168.632 57.6194 170.541 48.78 166.485C37.4365 161.281 30.5651 146.953 29.9276 127.174L30.5996 127.237C31.228 146.741 37.937 160.839 49.006 165.917C57.6084 169.864 68.2856 167.967 79.0707 160.576L79.5082 161.11Z" fill="#F2F2F2"/>
<path d="M147.337 33.7508C146.256 45.6872 143.177 58.2735 138.348 70.4176C132.376 85.4354 124.216 98.663 114.752 108.67L114.226 108.211C123.645 98.2521 131.767 85.0829 137.715 70.1272C143.089 56.612 146.286 42.5475 146.964 29.4602L147.635 29.5728C147.564 30.955 147.464 32.3477 147.337 33.7508Z" fill="#F2F2F2"/>
<path d="M118.179 16.7866L117.527 16.8582C114.617 5.39982 108.978 -2.53844 101.219 -6.09852C91.3545 -10.624 79.1568 -7.58506 66.8727 2.45865C54.5261 12.5536 43.5962 28.4993 36.0965 47.3591L35.4633 47.0687C42.996 28.1266 53.982 12.1038 66.3978 1.95272C78.8758 -8.24969 91.3224 -11.3109 101.445 -6.66695C109.427 -3.00486 115.214 5.10527 118.179 16.7866Z" fill="#F2F2F2"/>
<path d="M154.384 116.545C141.091 137.743 124.962 152.889 108.97 159.192L108.647 158.598C124.528 152.338 140.562 137.269 153.795 116.168L154.384 116.545Z" fill="#F2F2F2"/>
<path d="M174.895 69.0518C174.676 71.471 174.395 73.9198 174.053 76.3982L173.386 76.2363C175.944 57.7411 175.037 40.7832 170.76 27.1924L171.403 27.0846C175.133 38.9402 176.319 53.3302 174.895 69.0518Z" fill="#F2F2F2"/>
<path d="M36.0465 50.6767C34.3402 54.2795 32.7172 58.012 31.2226 61.7705C22.6218 83.3991 18.2633 105.488 18.6194 125.649L17.9472 125.577C17.5907 105.341 21.9618 83.1761 30.5895 61.4801C32.0884 57.711 33.716 53.968 35.4272 50.355L36.0465 50.6767Z" fill="#F2F2F2"/>
<path d="M79.1856 175.971C68.2097 183.493 57.2967 185.402 48.4573 181.347C37.1138 176.143 30.2424 161.814 29.6049 142.036L30.2769 142.099C30.9054 161.602 37.6143 175.7 48.6833 180.778C57.2858 184.725 67.963 182.828 78.7481 175.437L79.1856 175.971Z" fill="#F2F2F2"/>
<path d="M147.014 48.612C145.934 60.5484 142.854 73.1347 138.025 85.2788C132.053 100.297 123.894 113.524 114.429 123.532L113.904 123.073C123.323 113.113 131.445 99.9441 137.392 84.9884C142.767 71.4732 145.963 57.4087 146.641 44.3214L147.312 44.434C147.241 45.8162 147.142 47.2089 147.014 48.612Z" fill="#F2F2F2"/>
<path d="M145.831 32.4725L145.178 32.5441C142.269 21.0857 136.63 13.1475 128.87 9.58739C119.006 5.0619 106.808 8.10085 94.5241 18.1446C82.1776 28.2396 71.2476 44.1852 63.7479 63.0451L63.1148 62.7547C70.6474 43.8125 81.6335 27.7897 94.0492 17.6386C106.527 7.43622 118.974 4.37499 129.096 9.01897C137.078 12.6811 142.865 20.7912 145.831 32.4725Z" fill="#F2F2F2"/>
<path d="M153.513 136.629C140.219 157.827 124.091 172.973 108.099 179.277L107.776 178.682C123.657 172.422 139.691 157.353 152.924 136.252L153.513 136.629Z" fill="#F2F2F2"/>
<path d="M174.572 83.913C174.353 86.3322 174.072 88.781 173.73 91.2594L173.063 91.0975C175.622 72.6023 174.714 55.6444 170.438 42.0536L171.08 41.9458C174.81 53.8014 175.996 68.1914 174.572 83.913Z" fill="#F2F2F2"/>
<path d="M35.7238 65.538C34.0175 69.1408 32.3945 72.8734 30.8999 76.6318C22.2991 98.2604 17.9406 120.349 18.2968 140.511L17.6246 140.439C17.268 120.202 21.6391 98.0374 30.2668 76.3414C31.7657 72.5724 33.3933 68.8293 35.1046 65.2163L35.7238 65.538Z" fill="#F2F2F2"/>
<path d="M164.32 55.1091C165.063 53.9896 164.623 52.3871 163.338 51.5298C162.052 50.6725 160.408 50.8851 159.664 52.0045C158.921 53.124 159.361 54.7265 160.647 55.5838C161.932 56.4411 163.577 56.2285 164.32 55.1091Z" fill="#FD6584"/>
<path d="M78.9105 69.3798C80.4665 66.9899 83.007 65.1119 85.8362 64.9532C88.6656 64.7945 92.0658 67.2094 93.4622 69.6943C96.0164 74.2397 94.9081 78.6102 91.39 81.7715C90.9123 81.6091 89.2441 81.1184 88.7584 80.9616L88.4504 80.4041L88.0705 80.743C83.7228 81.1778 79.5229 80.6935 76.2506 77.4465C76.6574 74.6209 77.3546 71.7696 78.9105 69.3798Z" fill="#2F2E41"/>
<path d="M90.5678 101.283L90.0538 106.061L90.3563 112.326L76.5105 110.678L75.2095 101.283L76.8671 101.299L90.5678 101.283Z" fill="#FFB6B6"/>
<path d="M84.8829 80.6359C88.0582 80.6359 90.6322 78.0559 90.6322 74.8733C90.6322 71.6907 88.0582 69.1107 84.8829 69.1107C81.7076 69.1107 79.1335 71.6907 79.1335 74.8733C79.1335 78.0559 81.7076 80.6359 84.8829 80.6359Z" fill="#FFB7B7"/>
<path d="M78.5122 85.5803L81.8022 83.6018L88.3823 82.9423L94.1982 85.9106L94.1399 94.9785L90.4503 104.383L74.9871 102.405L74.3996 99.0875C74.3996 99.0875 70.1226 93.3297 74.7286 90.0321L78.5122 85.5803Z" fill="#7A3092"/>
<path d="M82.7333 66.1217C83.9791 65.7717 85.2958 65.7635 86.5458 66.0981C87.7958 66.4326 88.9332 67.0977 89.839 68.0236C90.7448 68.9496 91.3858 70.1024 91.6949 71.3616C92.004 72.6209 91.97 73.9402 91.5962 75.1817C88.0946 75.4618 84.6334 75.1342 81.905 72.651L81.6622 70.521L80.6666 72.3035C79.6625 72.0204 78.6569 71.7355 77.6496 71.4488C77.9577 70.1926 78.5894 69.0395 79.4815 68.1046C80.3736 67.1698 81.4949 66.4861 82.7333 66.1217Z" fill="#2F2E41"/>
<path d="M58.7656 58.6544C58.6097 58.9875 58.5285 59.3509 58.5279 59.7189C58.5273 60.0869 58.6071 60.4506 58.7619 60.7843C58.9167 61.118 59.1426 61.4137 59.4237 61.6504C59.7047 61.8872 60.0342 62.0593 60.3888 62.1546L71.1007 82.4125L75.4244 79.0678L63.5354 60.2066C63.6557 59.5989 63.5494 58.9681 63.2366 58.4337C62.9238 57.8992 62.4263 57.4984 61.8384 57.3071C61.2505 57.1157 60.6129 57.1472 60.0466 57.3955C59.4802 57.6438 59.0244 58.0917 58.7656 58.6544H58.7656Z" fill="#FFB6B6"/>
<path d="M76.337 89.2578C76.337 89.2578 75.3444 90.1402 73.9327 87.7038C72.8026 85.7532 67.1666 77.0189 66.3686 73.9911C65.9308 74.0035 65.5014 73.8696 65.148 73.6104C64.7945 73.3512 64.5372 72.9816 64.4164 72.5596L70.4704 70.2045C71.7864 70.864 71.4212 71.7781 71.0875 72.251L73.3421 75.6407L80.8418 84.0764L77.0658 88.6328L76.337 89.2578Z" fill="#7A3092"/>
<path d="M178.673 194H0.326549C0.239943 194 0.15688 193.965 0.0956397 193.904C0.0343995 193.843 0 193.759 0 193.673C0 193.586 0.0343995 193.503 0.0956397 193.441C0.15688 193.38 0.239943 193.345 0.326549 193.345H178.673C178.76 193.345 178.843 193.38 178.904 193.441C178.966 193.503 179 193.586 179 193.673C179 193.759 178.966 193.843 178.904 193.904C178.843 193.965 178.76 194 178.673 194Z" fill="#CCCCCC"/>
<path d="M135.976 11.3344C132.757 8.15429 128.458 6.39917 124.148 5.27629C119.268 4.00522 114.222 3.25649 109.237 2.53814C104.042 1.78951 98.8265 1.21207 93.5901 0.805835C88.3608 0.401744 83.122 0.170419 77.8737 0.111862C73.1972 0.0593586 68.4893 0.0577364 63.8356 0.577775C59.4523 1.06758 55.0795 2.05048 51.1278 4.06837C47.6102 5.8259 44.6549 8.53709 42.5978 11.8939C40.7065 15.0184 39.5821 18.7639 39.9731 22.4367C40.1565 24.2453 40.7183 25.9948 41.6219 27.571C42.6811 29.3128 44.0309 30.8593 45.6125 32.1431C48.8777 34.9066 52.7816 36.9268 55.5905 40.2111C56.3322 41.0716 56.9802 42.0089 57.5233 43.0072C57.9311 43.7644 58.3899 44.416 59.1486 44.8577C59.8257 45.245 60.6022 45.4228 61.38 45.3684C62.1578 45.3141 62.9022 45.0301 63.5192 44.5524C64.3943 43.864 65.0226 42.803 65.6997 41.9296L68.0607 38.8842C68.2314 38.6112 68.4292 38.3561 68.651 38.1229C68.8102 37.991 68.5476 38.1072 68.5997 38.0743C68.6283 38.0562 68.6786 38.0663 68.7099 38.0534C68.8672 38.0082 69.0284 37.9782 69.1913 37.9638C70.9154 37.646 72.6431 37.3489 74.3745 37.0723C80.7673 36.0384 87.2016 35.1856 93.6628 34.7259C96.9931 34.4594 100.336 34.3795 103.675 34.4866C107.993 34.6637 112.251 35.523 116.553 35.8937C121.185 36.2929 126.05 36.2377 130.414 34.4477C133.907 33.0149 137.151 30.6044 139.042 27.2751C139.94 25.7005 140.471 23.9434 140.598 22.1344C140.829 18.0312 138.838 14.1619 135.976 11.3344Z" fill="#E6E6E6"/>
<path d="M75.2994 3.47485C74.4757 3.47485 73.6526 3.47923 72.8299 3.48798C64.9303 3.572 56.7662 4.21215 50.5708 8.29337C45.0717 11.9159 41.2177 19.9851 44.4793 25.7721C45.977 28.4293 48.6906 30.3636 51.5635 32.4111C52.6895 33.2139 53.8542 34.0439 54.9702 34.9378C57.4081 36.8905 59.7038 39.5111 61.0246 42.4577L66.8254 34.9755L67.9214 34.7652C68.9758 34.5629 93.8966 29.8265 107.169 31.3642C108.389 31.5056 109.623 31.6684 110.816 31.8257C116.208 32.5368 121.301 33.2079 126.19 32.2169C131.294 31.1816 136.899 27.2306 137.232 21.9472C137.461 18.3301 135.113 14.362 131.251 11.8381C127.346 9.28614 122.476 8.23252 117.823 7.37199C103.796 4.78145 89.5625 3.47701 75.2994 3.47485Z" fill="white"/>
<path d="M120.318 14.9878H64.2976C63.9743 14.9878 63.6643 14.8591 63.4357 14.63C63.2071 14.4008 63.0787 14.0901 63.0787 13.7661C63.0787 13.4421 63.2071 13.1314 63.4357 12.9023C63.6643 12.6731 63.9743 12.5444 64.2976 12.5444H120.318C120.641 12.5444 120.951 12.6731 121.18 12.9023C121.408 13.1314 121.537 13.4421 121.537 13.7661C121.537 14.0901 121.408 14.4008 121.18 14.63C120.951 14.8591 120.641 14.9878 120.318 14.9878Z" fill="#7A3092"/>
<path d="M120.318 22.4864H64.2976C63.9743 22.4864 63.6643 22.3577 63.4357 22.1286C63.2071 21.8995 63.0787 21.5888 63.0787 21.2648C63.0787 20.9408 63.2071 20.63 63.4357 20.4009C63.6643 20.1718 63.9743 20.0431 64.2976 20.0431H120.318C120.641 20.0431 120.951 20.1718 121.18 20.4009C121.408 20.63 121.537 20.9408 121.537 21.2648C121.537 21.5888 121.408 21.8995 121.18 22.1286C120.951 22.3577 120.641 22.4864 120.318 22.4864Z" fill="#7A3092"/>
<path d="M70.8259 29.9851H64.2976C63.9743 29.9851 63.6643 29.8564 63.4357 29.6273C63.2071 29.3982 63.0787 29.0874 63.0787 28.7634C63.0787 28.4394 63.2071 28.1287 63.4357 27.8996C63.6643 27.6705 63.9743 27.5417 64.2976 27.5417H70.8259C71.1492 27.5417 71.4592 27.6705 71.6878 27.8996C71.9164 28.1287 72.0448 28.4394 72.0448 28.7634C72.0448 29.0874 71.9164 29.3982 71.6878 29.6273C71.4592 29.8564 71.1492 29.9851 70.8259 29.9851Z" fill="#7A3092"/>
<path d="M60.7042 59.2885C63.5654 59.2885 65.8848 56.9637 65.8848 54.096C65.8848 51.2282 63.5654 48.9034 60.7042 48.9034C57.843 48.9034 55.5236 51.2282 55.5236 54.096C55.5236 56.9637 57.843 59.2885 60.7042 59.2885Z" fill="#E6E6E6"/>
<path d="M45.631 117.948C46.3741 116.829 45.9343 115.226 44.6486 114.369C43.363 113.512 41.7184 113.724 40.9753 114.844C40.2323 115.963 40.6721 117.566 41.9577 118.423C43.2433 119.28 44.8879 119.068 45.631 117.948Z" fill="#F2F2F2"/>
<path d="M156.787 117.595C157.53 116.475 157.09 114.873 155.804 114.016C154.519 113.158 152.874 113.371 152.131 114.49C151.388 115.61 151.828 117.212 153.113 118.07C154.399 118.927 156.044 118.714 156.787 117.595Z" fill="#E6E6E6"/>
<path d="M114.826 77.1868C115.569 76.0674 115.129 74.4649 113.843 73.6076C112.558 72.7503 110.913 72.9628 110.17 74.0823C109.427 75.2018 109.867 76.8042 111.152 77.6615C112.438 78.5188 114.083 78.3063 114.826 77.1868Z" fill="#E6E6E6"/>
<path d="M97.7494 188.03H94.7222L93.2818 176.327H97.7494V188.03Z" fill="#FFB6B6"/>
<path d="M99.3472 193.287H97.1763L96.7888 191.232L95.7964 193.287H90.0387C89.7627 193.287 89.4939 193.198 89.2716 193.034C89.0493 192.87 88.8851 192.639 88.803 192.375C88.7209 192.111 88.7251 191.828 88.8151 191.566C88.9051 191.305 89.0761 191.079 89.3032 190.922L93.9012 187.739V185.662L98.7374 185.952L99.3472 193.287Z" fill="#2F2E41"/>
<path d="M80.7456 188.03H77.7183L76.278 176.327H80.7456V188.03Z" fill="#FFB6B6"/>
<path d="M82.3433 193.287H80.1724L79.7849 191.232L78.7925 193.287H73.0348C72.7588 193.287 72.4901 193.198 72.2678 193.034C72.0454 192.87 71.8813 192.639 71.7991 192.375C71.717 192.111 71.7212 191.828 71.8112 191.566C71.9012 191.305 72.0723 191.079 72.2994 190.922L76.8973 187.739V185.662L81.7335 185.952L82.3433 193.287Z" fill="#2F2E41"/>
<path d="M99.0555 177.938H99.0226L98.4404 158.909C98.8172 158.181 99.0084 157.37 98.997 156.55C98.9856 155.73 98.7721 154.925 98.3753 154.207L98.2919 154.056L98.5081 153.052C98.7856 151.762 98.6583 150.417 98.1434 149.203L97.6003 131.453C99.5406 118.849 90.2936 110.629 90.2936 110.629H76.4414L73.4675 120.87C71.5015 140.068 71.8583 158.776 74.978 176.901L74.893 176.944C74.5867 177.05 74.4554 177.476 74.5995 177.894C74.7437 178.313 75.1088 178.566 75.4151 178.46L82.7306 178.205C83.0369 178.099 83.1682 177.674 83.0241 177.255C82.8799 176.837 82.5148 176.583 82.2085 176.689L81.7111 176.942L82.7719 158.58L82.6542 155.226L82.8967 151.421L84.0181 134.306L88.2625 155.352L92.598 178.149C92.4784 178.258 92.3945 178.4 92.3573 178.558C92.3201 178.715 92.3313 178.88 92.3896 179.031C92.4478 179.181 92.5503 179.311 92.6836 179.402C92.8168 179.493 92.9744 179.542 93.1357 179.541H99.0555C99.2677 179.541 99.4712 179.457 99.6212 179.306C99.7712 179.156 99.8555 178.952 99.8555 178.739C99.8555 178.527 99.7712 178.323 99.6212 178.173C99.4712 178.022 99.2677 177.938 99.0555 177.938H99.0555Z" fill="#2F2E41"/>
<path d="M92.5954 124.732C92.9081 124.539 93.1747 124.28 93.3765 123.973C93.5783 123.665 93.7104 123.317 93.7635 122.953C93.8166 122.589 93.7894 122.217 93.6838 121.865C93.5782 121.513 93.3968 121.188 93.1523 120.913L95.274 98.0847L89.8285 98.5063L89.4553 120.813C89.0223 121.255 88.7661 121.841 88.7354 122.46C88.7047 123.079 88.9015 123.688 89.2886 124.171C89.6756 124.654 90.2261 124.978 90.8355 125.081C91.445 125.185 92.0712 125.061 92.5954 124.732V124.732Z" fill="#FFB6B6"/>
<path d="M93.9965 86.0016C93.9965 86.0016 95.3092 85.809 95.1572 88.6224C95.0355 90.8747 95.614 104.757 94.6254 107.728C94.9983 107.958 95.2841 108.306 95.438 108.717C95.5918 109.128 95.6049 109.579 95.4751 109.998L89.1237 108.641C88.3838 107.366 88.5371 106.058 89.0749 105.845L89.0433 101.772L87.6396 88.3432L93.0451 86.1239L93.9965 86.0016Z" fill="#7A3092"/>
</g>
<defs>
<clipPath id="clip0_4_126">
<rect width="179" height="194" fill="white"/>
</clipPath>
</defs>
</svg>
