<svg width="312" height="164" viewBox="0 0 312 164" fill="none" xmlns="http://www.w3.org/2000/svg">
<path d="M287.044 162.577C286.354 162.005 285.813 161.273 285.469 160.445C285.125 159.616 284.988 158.715 285.07 157.821C285.287 156.045 286.632 154.412 288.377 154.035C290.121 153.658 292.11 154.702 292.64 156.411C292.932 153.116 293.268 149.684 295.014 146.878C295.806 145.603 296.871 144.521 298.132 143.71C299.393 142.9 300.819 142.382 302.305 142.195C303.795 142.033 305.301 142.246 306.688 142.814C308.076 143.382 309.3 144.287 310.252 145.448C311.176 146.631 311.758 148.046 311.936 149.538C312.113 151.03 311.88 152.543 311.26 153.911C310.305 155.899 308.545 157.378 306.7 158.581C300.741 162.437 293.594 164.004 286.573 162.996" fill="#F2F2F2"/>
<path d="M307.316 143.166C304.866 145.167 302.618 147.404 300.606 149.847C297.456 153.656 294.907 157.927 293.048 162.511C292.912 162.845 293.454 162.991 293.588 162.66C296.63 155.211 301.486 148.645 307.712 143.563C307.991 143.335 307.593 142.939 307.316 143.166H307.316Z" fill="white"/>
<path d="M225.757 80.9573L227.826 76.0479C228.049 75.5186 228.472 75.0998 229.003 74.8836C229.534 74.6675 230.129 74.6717 230.657 74.8954L269.016 91.1476C270.193 91.6464 271.125 92.5936 271.605 93.7809C272.086 94.9681 272.077 96.2983 271.579 97.4786C271.082 98.6589 270.137 99.5928 268.953 100.075C267.769 100.557 266.442 100.547 265.265 100.049L226.906 83.7963C226.378 83.5726 225.96 83.1479 225.745 82.6155C225.529 82.083 225.534 81.4866 225.757 80.9573Z" fill="#7A3092"/>
<path d="M246.098 76.5113C245.43 75.4709 243.825 75.445 242.796 76.1279C241.768 76.8108 241.178 77.9723 240.632 79.0818C239.663 81.053 238.682 83.0605 238.327 85.2291C237.971 87.3977 238.327 89.7908 239.776 91.4398C241.155 93.0091 243.266 93.6698 245.267 94.2617L264.034 99.8134C266.019 100.401 268.192 100.981 270.106 100.191C271.344 99.6194 272.36 98.6547 272.996 97.4461C273.975 95.6429 274.353 93.5733 274.075 91.5395C273.798 89.5056 272.879 87.6139 271.454 86.1404C268.08 82.8037 262.872 82.5319 258.248 81.4934C253.667 80.4614 249.341 78.5146 245.528 75.769" fill="#2F2E41"/>
<path d="M280.648 163.923H275.333C274.712 163.922 274.117 163.675 273.678 163.235C273.239 162.795 272.993 162.198 272.992 161.576V117.156C272.993 116.533 273.239 115.937 273.678 115.497C274.117 115.057 274.712 114.809 275.333 114.808H280.648C281.269 114.809 281.864 115.057 282.302 115.497C282.741 115.937 282.988 116.533 282.989 117.156V161.576C282.988 162.198 282.741 162.795 282.302 163.235C281.864 163.675 281.269 163.922 280.648 163.923Z" fill="#7A3092"/>
<path d="M270.135 163.923H264.82C264.199 163.922 263.604 163.675 263.165 163.235C262.726 162.795 262.48 162.198 262.479 161.576V117.156C262.48 116.533 262.726 115.937 263.165 115.497C263.604 115.057 264.199 114.809 264.82 114.808H270.135C270.756 114.809 271.351 115.057 271.789 115.497C272.228 115.937 272.475 116.533 272.476 117.156V161.576C272.475 162.198 272.228 162.795 271.789 163.235C271.351 163.675 270.756 163.922 270.135 163.923Z" fill="#7A3092"/>
<path d="M272.575 68.4507C282.719 68.4507 290.942 60.2055 290.942 50.0345C290.942 39.8636 282.719 31.6184 272.575 31.6184C262.432 31.6184 254.209 39.8636 254.209 50.0345C254.209 60.2055 262.432 68.4507 272.575 68.4507Z" fill="#7A3092"/>
<path d="M256.716 54.5154C255.525 54.4822 254.044 54.4408 252.902 53.6047C252.562 53.3455 252.283 53.0149 252.084 52.6361C251.885 52.2573 251.771 51.8395 251.75 51.4118C251.729 51.1079 251.779 50.8033 251.895 50.5218C252.011 50.2404 252.191 49.9897 252.42 49.7893C253.016 49.2842 253.887 49.1657 254.825 49.4422L253.853 42.3192L254.566 42.2212L255.709 50.5951L255.113 50.3209C254.422 50.0032 253.474 49.8415 252.885 50.3409C252.74 50.4714 252.627 50.6336 252.555 50.815C252.483 50.9963 252.454 51.1919 252.47 51.3864C252.487 51.7047 252.573 52.0155 252.721 52.2976C252.869 52.5798 253.075 52.8266 253.327 53.0214C254.215 53.672 255.396 53.756 256.736 53.7935L256.716 54.5154Z" fill="#2F2E41"/>
<path d="M262.568 42.9336H258.689V43.6558H262.568V42.9336Z" fill="#2F2E41"/>
<path d="M269.639 47.8811C270.476 47.5326 271.204 46.9639 271.746 46.2351C272.288 45.5063 272.623 44.6444 272.717 43.7403C272.788 42.8125 272.624 41.8817 272.239 41.0348C271.854 40.188 271.262 39.4526 270.517 38.8973C267.384 36.5265 263.064 38.0268 259.784 36.0725C259.023 35.6207 258.431 34.9312 258.099 34.1097C257.767 33.2883 257.712 32.3802 257.944 31.5247C258.395 29.5813 259.862 28.1625 261.531 27.1886C264.832 25.2629 268.851 24.5447 272.632 24.6848C280.408 24.973 287.571 29.0212 292.216 35.2152C294.484 38.2574 296.194 41.6795 297.268 45.3218C298.379 49.061 298.994 53.1551 298.29 57.0304C298.006 58.8503 297.333 60.5873 296.319 62.123C295.304 63.6588 293.971 64.9571 292.411 65.9294C289.428 67.8767 285.931 68.8754 282.479 69.5991C281.618 69.7796 280.753 69.9411 279.887 70.0934C279.203 70.2136 279.493 71.2578 280.174 71.138C287.129 69.9151 295.318 67.7533 298.361 60.5832C299.999 56.7244 299.882 52.3553 299.107 48.307C298.377 44.4804 296.992 40.8095 295.012 37.4575C290.97 30.6464 284.392 25.5485 276.557 24.0517C272.648 23.2732 268.609 23.4689 264.793 24.6216C261.19 25.7491 257.098 27.995 256.752 32.2083C256.669 33.1414 256.848 34.0793 257.268 34.9159C257.689 35.7525 258.334 36.4545 259.131 36.9427C260.694 37.9166 262.578 38.1545 264.373 38.312C266.308 38.4817 268.526 38.5979 270.078 39.9233C271.523 41.1577 272.129 43.2968 271.234 45.0311C270.836 45.8345 270.17 46.473 269.352 46.8365C269.216 46.8788 269.102 46.9712 269.032 47.0949C268.962 47.2186 268.941 47.3644 268.974 47.5028C269.013 47.6409 269.105 47.7581 269.229 47.8289C269.354 47.8998 269.501 47.9185 269.639 47.8811V47.8811Z" fill="#2F2E41"/>
<path d="M288.264 78.5826L288.189 78.447C288.006 78.1163 287.74 77.8394 287.416 77.644C287.093 77.4486 286.725 77.3414 286.348 77.3331L276.87 77.1248V75.868C276.87 75.5835 276.814 75.3018 276.706 75.0389C276.597 74.776 276.438 74.5372 276.237 74.336C276.037 74.1348 275.798 73.9752 275.536 73.8663C275.274 73.7574 274.993 73.7014 274.709 73.7014H268.947C268.374 73.7014 267.825 73.9297 267.419 74.336C267.014 74.7423 266.787 75.2934 266.787 75.868V76.9033L258.195 76.7145C257.815 76.7062 257.439 76.7986 257.106 76.9824C256.773 77.1662 256.494 77.4349 256.298 77.7614V77.7614C251.705 85.3945 249.203 94.1077 249.044 103.021C248.886 111.934 251.075 120.731 255.393 128.524L255.468 128.659C255.651 128.99 255.917 129.267 256.24 129.462C256.563 129.658 256.932 129.765 257.309 129.773L285.462 130.392C285.842 130.4 286.218 130.308 286.551 130.124C286.884 129.94 287.163 129.671 287.359 129.345V129.345C291.952 121.712 294.454 112.999 294.613 104.086C294.771 95.1726 292.582 86.3754 288.264 78.5826Z" fill="#2F2E41"/>
<path d="M264.583 129.674L259.393 128.524C258.833 128.4 258.346 128.059 258.038 127.574C257.729 127.09 257.626 126.502 257.749 125.941L266.735 85.1692C267.011 83.918 267.771 82.8279 268.848 82.1387C269.925 81.4495 271.232 81.2176 272.479 81.4941C273.727 81.7706 274.814 82.5328 275.502 83.613C276.189 84.6932 276.42 86.003 276.145 87.2542L267.159 128.026C267.036 128.587 266.695 129.076 266.212 129.385C265.728 129.694 265.143 129.798 264.583 129.674Z" fill="#7A3092"/>
<path d="M258.631 109.304C257.71 110.128 257.936 111.722 258.77 112.634C259.604 113.546 260.84 113.948 262.019 114.314C264.112 114.965 266.243 115.622 268.435 115.635C270.627 115.647 272.928 114.92 274.325 113.227C275.655 111.615 275.975 109.42 276.245 107.346L278.774 87.8914C279.041 85.8332 279.273 83.5902 278.195 81.8185C277.438 80.682 276.328 79.8273 275.038 79.3864C273.109 78.7 271.011 78.6498 269.051 79.2432C267.091 79.8365 265.372 81.0424 264.144 82.6847C261.386 86.5484 261.934 91.7494 261.635 96.4914C261.336 101.189 260.096 105.778 257.989 109.985" fill="#2F2E41"/>
<path d="M223.191 96.5809H6.16502C4.53052 96.579 2.96349 95.9272 1.80773 94.7683C0.651967 93.6094 0.00184626 92.0381 0 90.3992V6.18174C0.00184626 4.54282 0.651967 2.97155 1.80773 1.81265C2.96349 0.653752 4.53052 0.00186561 6.16502 0H223.191C224.826 0.00185986 226.393 0.653742 227.549 1.81264C228.704 2.97154 229.355 4.54281 229.356 6.18174V90.3992C229.355 92.0381 228.704 93.6094 227.549 94.7683C226.393 95.9272 224.826 96.579 223.191 96.5809Z" fill="#3F3D56"/>
<path d="M223.191 1.26392H6.16499C4.86475 1.26565 3.61827 1.78433 2.69886 2.70623C1.77945 3.62812 1.26217 4.87797 1.26044 6.18172V90.3992C1.26217 91.703 1.77945 92.9528 2.69886 93.8747C3.61827 94.7966 4.86475 95.3153 6.16499 95.317H223.191C224.492 95.3153 225.738 94.7966 226.658 93.8747C227.577 92.9528 228.094 91.703 228.096 90.3992V6.18172C228.094 4.87797 227.577 3.62812 226.658 2.70623C225.738 1.78433 224.492 1.26565 223.191 1.26392Z" fill="white"/>
<path d="M228.096 14.9693V90.3993C228.094 91.703 227.577 92.9529 226.658 93.8748C225.738 94.7966 224.492 95.3153 223.191 95.3171H6.16499C4.86475 95.3153 3.61827 94.7966 2.69886 93.8748C1.77945 92.9529 1.26217 91.703 1.26044 90.3993V82.2234C2.1064 78.7379 5.46915 75.7042 9.13529 74.8467C14.0553 73.6971 19.1529 75.3046 23.9593 76.8722C28.7628 78.4398 33.888 80.0011 38.7864 78.7594C53.0034 75.1663 54.6281 52.071 68.7808 48.2444C77.0695 46.0037 85.2172 51.7053 91.921 57.0841C98.625 62.4599 106.745 68.183 115.046 65.9854C121.125 64.3748 125.275 58.956 129.395 54.1949C133.515 49.4339 138.922 44.6913 145.185 45.2414C151.741 45.8162 156.511 51.985 162.887 53.6202C171.271 55.7656 179.559 49.48 184.51 42.3645C189.457 35.2491 192.747 26.815 199.165 21.0028C206.832 14.0594 218.039 12.3228 228.096 14.9693Z" fill="#CCCCCC"/>
<path d="M311.46 164H243.29C243.234 164 243.178 163.989 243.126 163.968C243.074 163.946 243.026 163.914 242.986 163.875C242.946 163.835 242.915 163.787 242.893 163.735C242.871 163.683 242.86 163.627 242.86 163.57C242.86 163.514 242.871 163.457 242.893 163.405C242.915 163.353 242.946 163.306 242.986 163.266C243.026 163.226 243.074 163.194 243.126 163.172C243.178 163.151 243.234 163.14 243.29 163.14H311.46C311.574 163.14 311.683 163.185 311.764 163.266C311.844 163.347 311.889 163.456 311.889 163.57C311.889 163.684 311.844 163.793 311.764 163.874C311.683 163.955 311.574 164 311.46 164Z" fill="#3F3D56"/>
</svg>
