<svg width="3359" height="178" viewBox="0 0 3359 178" fill="none" xmlns="http://www.w3.org/2000/svg">
<path d="M1587 89C1587 52.7018 1587 34.5528 1598.32 23.2764C1609.64 12 1627.86 12 1664.29 12C1700.73 12 1718.94 12 1730.26 23.2764C1741.58 34.5528 1741.58 52.7018 1741.58 89C1741.58 125.298 1741.58 143.447 1730.26 154.724C1718.94 166 1700.73 166 1664.29 166C1627.86 166 1609.64 166 1598.32 154.724C1587 143.447 1587 125.298 1587 89Z" fill="#243A5A"/>
<path d="M1679.75 112.1C1681.88 112.1 1683.65 113.841 1683.23 115.925C1682.48 119.605 1680.66 123.017 1677.95 125.712C1674.33 129.322 1669.42 131.35 1664.29 131.35C1659.17 131.35 1654.25 129.322 1650.63 125.712C1647.92 123.017 1646.1 119.605 1645.35 115.925C1644.93 113.841 1646.7 112.1 1648.83 112.1H1679.75Z" fill="#2DF8BB"/>
<path d="M1687.87 80.4395C1685.81 80.9897 1684.55 83.1384 1685.59 84.9921C1686.69 86.9433 1688.22 88.6462 1690.07 89.9679C1692.97 92.043 1696.51 93.0502 1700.08 92.8169C1703.65 92.5839 1707.03 91.1256 1709.64 88.6901C1712.25 86.2545 1713.93 82.9924 1714.4 79.4601C1714.86 75.9277 1714.09 72.3433 1712.2 69.3176C1710.31 66.2923 1707.43 64.0127 1704.04 62.8673C1700.65 61.722 1696.97 61.782 1693.63 63.0371C1691.49 63.8364 1689.58 65.0888 1688.01 66.6896C1686.52 68.2108 1687.18 70.612 1689.03 71.675L1690.99 72.8026C1693.97 74.5178 1693.39 78.968 1690.06 79.8558L1687.87 80.4395Z" fill="#2DF8BB"/>
<path d="M1640.71 80.4395C1642.77 80.9897 1644.03 83.1384 1642.99 84.9921C1641.89 86.9433 1640.37 88.6462 1638.51 89.9679C1635.61 92.043 1632.07 93.0502 1628.5 92.8169C1624.93 92.5839 1621.55 91.1256 1618.94 88.6901C1616.33 86.2545 1614.65 82.9924 1614.18 79.4601C1613.72 75.9277 1614.49 72.3433 1616.38 69.3176C1618.27 66.2923 1621.15 64.0127 1624.54 62.8673C1627.93 61.722 1631.61 61.782 1634.96 63.0371C1637.09 63.8364 1639 65.0888 1640.57 66.6896C1642.06 68.2108 1641.4 70.612 1639.55 71.675L1637.59 72.8026C1634.61 74.5178 1635.2 78.968 1638.52 79.8558L1640.71 80.4395Z" fill="#2DF8BB"/>
<g clip-path="url(#clip0_5_1129)">
<path fill-rule="evenodd" clip-rule="evenodd" d="M102.927 14.4108C97.1475 8.63305 87.7801 8.63494 82.0036 14.4151L33.7938 62.6548L33.7527 62.6428L33.6004 62.6591C33.6631 62.6893 33.7247 62.7191 33.7851 62.7493C25.3281 63.6354 21.7399 66.1773 21.6993 69.4417C21.7136 70.6559 22.2117 71.9673 23.1266 73.3287L23.0826 73.3728C30.7709 84.971 68.8584 100.271 95.8042 89.9047C75.6094 100.004 28.0495 102.006 14.0804 82.3966C11.0468 85.6791 9.77751 89.9929 10.2555 94.1384C13.9457 114.482 55.2029 120.032 96.4604 90.5567L105.388 99.4865C94.2788 110.903 77.8687 177.213 102.252 167.089C102.831 166.696 103.322 166.345 103.989 165.84L105.076 164.813C105.013 164.829 104.951 164.843 104.889 164.858L170.194 103.194C176.257 97.4682 176.395 87.8643 170.497 81.9675L102.927 14.4108ZM95.8151 34.5066L98.047 25.5768L100.279 34.5066L106.975 36.7391L100.279 38.9716L98.047 47.9014L95.8151 38.9716L89.119 36.7391L95.8151 34.5066ZM68.1887 63.6574L69.6766 57.7041L71.1645 63.6574L75.6287 65.1457L71.1645 66.6339L69.6766 72.5872L68.1887 66.6339L63.7249 65.1457L68.1887 63.6574ZM120.013 113.872L118.525 119.825L114.061 121.314L118.525 122.802L120.013 128.755L121.501 122.802L125.965 121.314L121.501 119.825L120.013 113.872Z" fill="#4845D2"/>
<path fill-rule="evenodd" clip-rule="evenodd" d="M175.223 20.3202C161.261 20.3202 148.021 26.5228 139.083 37.2504L107.286 75.4155L125.647 47.8677L95.1692 60.9325C91.2985 62.5918 90.3274 67.6358 93.3048 70.6142L103.113 80.4239L98.1052 86.4345L109.122 97.4535L115.131 92.4447L124.939 102.255C127.917 105.233 132.96 104.262 134.618 100.39L147.681 69.906L120.139 88.271L158.296 56.4667C169.021 47.5272 175.223 34.2844 175.223 20.3202ZM144.927 50.6232C147.969 53.6659 152.901 53.6659 155.943 50.6232C158.985 47.5802 158.985 42.6469 155.943 39.6042C152.901 36.5613 147.969 36.5613 144.927 39.6042C141.884 42.6469 141.884 47.5802 144.927 50.6232Z" fill="#A3A2FF"/>
<path opacity="0.6" d="M13.7261 81.8835C21.0204 106.88 65.3687 105.577 95.7957 89.9086C75.4213 100.092 27.2242 102.037 13.7261 81.8835Z" fill="#424242"/>
<path opacity="0.6" d="M102.252 167.089C81.7061 175.62 90.1245 129.88 99.9294 108.443C92.7823 127.497 86.6813 169.502 105.076 164.813L103.989 165.839C103.322 166.345 102.831 166.696 102.252 167.089Z" fill="#424242"/>
</g>
<path d="M3154 89C3154 54.7583 3181.69 27 3215.85 27H3297.02C3331.18 27 3358.87 54.7583 3358.87 89V151H3215.85C3181.69 151 3154 123.242 3154 89Z" fill="#4845D2"/>
<path d="M3297.02 50.25H3215.85C3194.5 50.25 3177.19 67.599 3177.19 89C3177.19 110.401 3194.5 127.75 3215.85 127.75H3297.02C3318.37 127.75 3335.68 110.401 3335.68 89C3335.68 67.599 3318.37 50.25 3297.02 50.25Z" fill="#A5B4FC"/>
<path d="M3215.85 108.375C3226.52 108.375 3235.18 99.7005 3235.18 89C3235.18 78.2995 3226.52 69.625 3215.85 69.625C3205.17 69.625 3196.52 78.2995 3196.52 89C3196.52 99.7005 3205.17 108.375 3215.85 108.375Z" fill="black"/>
<path d="M3208.12 85.125C3210.25 85.125 3211.98 83.3901 3211.98 81.25C3211.98 79.1099 3210.25 77.375 3208.12 77.375C3205.98 77.375 3204.25 79.1099 3204.25 81.25C3204.25 83.3901 3205.98 85.125 3208.12 85.125Z" fill="white"/>
<path d="M3300.89 108.375C3311.56 108.375 3320.22 99.7005 3320.22 89C3320.22 78.2995 3311.56 69.625 3300.89 69.625C3290.21 69.625 3281.56 78.2995 3281.56 89C3281.56 99.7005 3290.21 108.375 3300.89 108.375Z" fill="black"/>
<path d="M3293.16 85.125C3295.29 85.125 3297.02 83.3901 3297.02 81.25C3297.02 79.1099 3295.29 77.375 3293.16 77.375C3291.02 77.375 3289.29 79.1099 3289.29 81.25C3289.29 83.3901 3291.02 85.125 3293.16 85.125Z" fill="white"/>
<defs>
<clipPath id="clip0_5_1129">
<rect width="175" height="178" fill="white"/>
</clipPath>
</defs>
</svg>
