<svg width="569" height="421" viewBox="0 0 569 421" fill="none" xmlns="http://www.w3.org/2000/svg">
<g clip-path="url(#clip0_23_1389)">
<path d="M515.23 419.05H394.583V415.352C394.583 412.141 395.86 409.062 398.133 406.792C400.406 404.522 403.489 403.246 406.703 403.246H503.11C506.325 403.246 509.407 404.522 511.681 406.792C513.954 409.062 515.23 412.141 515.23 415.352V419.05Z" fill="#E6E6E6"/>
<path d="M452.083 403.984L455.752 402.508C417.363 307.332 421.062 187.26 453.513 84.2597C457.368 72.3256 457.646 59.5263 454.313 47.4365C450.98 35.3467 444.181 24.4937 434.753 16.2127C415.918 -0.576072 389.95 -4.66597 366.98 5.53802C344.307 15.6118 341.182 33.1588 341.182 50.6204H345.137C345.137 31.981 349.125 17.7952 368.588 9.14802C390.116 -0.414983 414.459 3.42074 432.119 19.161C440.974 26.9386 447.36 37.1321 450.491 48.4873C453.621 59.8426 453.36 71.8643 449.74 83.0733C416.914 187.263 413.432 308.16 452.083 403.984Z" fill="#E6E6E6"/>
<path d="M344.149 108.897C351.795 108.897 357.993 102.706 357.993 95.069C357.993 87.4318 351.795 81.2405 344.149 81.2405C336.502 81.2405 330.304 87.4318 330.304 95.069C330.304 102.706 336.502 108.897 344.149 108.897Z" fill="#E6E6E6"/>
<path d="M322.826 119.176V92.9743H326.905V119.176C328.075 119.649 329.044 120.513 329.646 121.621C330.248 122.729 330.445 124.012 330.204 125.249C329.963 126.487 329.298 127.602 328.324 128.404C327.35 129.206 326.128 129.644 324.865 129.644C323.603 129.644 322.38 129.206 321.406 128.404C320.433 127.602 319.768 126.487 319.527 125.249C319.286 124.012 319.483 122.729 320.085 121.621C320.687 120.513 321.656 119.649 322.826 119.176Z" fill="#E6E6E6"/>
<path d="M303.108 72.8445C303.115 66.8214 305.514 61.0469 309.778 56.7879C314.042 52.5289 319.823 50.1332 325.853 50.1263H363.432C369.465 50.1263 375.25 52.5199 379.515 56.7803C383.781 61.0408 386.177 66.8193 386.177 72.8445C386.177 78.8698 383.781 84.6482 379.515 88.9087C375.25 93.1692 369.465 95.5627 363.432 95.5627H325.853C319.823 95.5559 314.042 93.1602 309.778 88.9012C305.514 84.6421 303.115 78.8677 303.108 72.8445Z" fill="#7A3092"/>
<path d="M250.162 213.53C253.935 165.315 273.226 142.344 260.873 127.938C249.041 114.139 215.712 116.989 194.308 130.23C136.575 165.945 115.424 308.29 189.717 377.837C260.314 443.923 394.11 422.757 423.844 368.666C430.782 356.045 436.293 333.92 426.139 320.52C400.93 287.253 309.275 347.509 268.525 309.821C244.374 287.486 248.091 239.99 250.162 213.53Z" fill="#3F3D56"/>
<path d="M294.292 189.577C292.89 190.221 291.795 191.386 291.24 192.825C290.685 194.263 290.714 195.861 291.32 197.279C291.448 197.565 291.599 197.84 291.772 198.102L279.381 214.628L285.564 223.859L300.089 199.387C301.118 198.585 301.852 197.466 302.177 196.204C302.503 194.941 302.4 193.607 301.887 192.409C301.588 191.73 301.158 191.116 300.621 190.603C300.085 190.09 299.453 189.688 298.761 189.419C298.069 189.15 297.33 189.02 296.588 189.036C295.846 189.052 295.114 189.214 294.434 189.512C294.386 189.533 294.339 189.555 294.292 189.577Z" fill="#FFB6B6"/>
<path d="M294.282 218.07C295.093 218.789 292.844 219.675 290.464 218.277C289.784 217.872 289.493 217.703 289.416 217.81C289.225 218.078 290.342 220.05 290.044 224.428C289.86 227.042 285.514 231.956 280.579 236.748C273.907 243.228 266.149 249.48 266.149 249.48L263.425 247.301L234.863 224.428L230.043 217.765C230.484 215.133 231.147 212.543 232.025 210.023C233.233 206.535 234.67 203.129 236.325 199.828C237.212 198.032 238.123 196.321 238.995 194.746L254.297 211.59L267.121 225.697C267.121 225.697 270.854 219.69 273.747 218.055C274.115 217.82 274.535 217.676 274.971 217.635C277.894 217.497 278.07 215.908 274.68 212.446C271.291 208.984 275.568 212.216 278.582 211.284C281.597 210.352 278.582 211.284 279.217 208.953C279.852 206.622 288.307 201.945 288.307 201.945L288.659 202.259L295.048 207.891L296.876 209.503C296.876 209.503 294.879 214.975 294.328 216.129C293.777 217.283 293.479 217.344 294.282 218.07Z" fill="#7A3092"/>
<path d="M462.699 324.232L463.01 315.802L430.606 310.591L430.146 323.032L462.699 324.232Z" fill="#FFB6B6"/>
<path d="M456.817 326.77L456.51 313.273L462.286 313.486L471.612 301.009C472.073 300.392 472.719 299.939 473.455 299.715C474.192 299.492 474.981 299.509 475.707 299.765C476.433 300.02 477.058 300.501 477.491 301.137C477.925 301.773 478.143 302.531 478.114 303.299L477.522 319.332L471.706 321.885L477.38 323.175L477.157 329.22L456.817 326.77Z" fill="#2F2E41"/>
<path d="M280.325 327.514L382.961 330.113C382.961 330.113 427.282 332.67 437.681 325.913L448.647 324.53L449.241 308.442C449.241 308.442 442.536 308.491 438.68 306.697C434.825 304.903 437.504 302.707 433.829 304.866C430.153 307.025 430.541 307.284 427.699 306.292C424.857 305.3 294.53 285.459 294.53 285.459L280.325 327.514Z" fill="#2F2E41"/>
<path d="M415.571 320.532L421.54 314.564L401.333 288.731L392.524 297.539L415.571 320.532Z" fill="#FFB6B6"/>
<path d="M409.531 315.34L418.496 305.237L422.586 309.317L437.919 306.506C438.676 306.367 439.458 306.473 440.151 306.809C440.843 307.146 441.41 307.694 441.768 308.375C442.126 309.056 442.257 309.833 442.141 310.594C442.026 311.354 441.67 312.058 441.126 312.602L429.774 323.953L423.772 321.873L427.054 326.673L422.774 330.953L409.531 315.34Z" fill="#2F2E41"/>
<path d="M239.833 271.37L240.853 295.061C242.055 322.95 272.804 339.829 296.648 325.268C297.088 324.999 297.529 324.721 297.971 324.433C297.971 324.433 307.01 322.009 306.736 318.169C306.462 314.329 308.67 312.46 310.624 313.508C312.578 314.555 338.165 278.285 338.165 278.285C338.165 278.285 391.327 304.771 403.055 311.007C403.055 311.007 414.081 293.786 413.282 293.967C412.483 294.147 347.515 248.729 347.515 248.729C347.515 248.729 336.931 238.03 323.802 245.094C323.528 246.132 323.762 246.168 323.762 246.168L280.392 281.466L274.263 269.842L239.833 271.37Z" fill="#2F2E41"/>
<path d="M280.725 241.753C280.642 242.848 280.486 243.935 280.258 245.009C279.946 246.563 279.442 248.072 278.758 249.503C278.758 249.503 278.758 251.1 275.698 256.449C272.637 261.799 276.463 259.506 278.758 263.48C281.054 267.446 278.758 265.62 276.21 268.172C275.477 268.915 274.956 269.841 274.702 270.853C274.447 271.865 274.469 272.926 274.764 273.927C274.764 273.927 241.895 273.95 235.774 271.657C229.653 269.365 228.26 256.449 233.746 255.173C239.225 253.897 232.086 252.628 228.865 249.686C225.644 246.744 232.086 241.929 232.086 241.929C232.086 241.929 229.431 237.352 229.653 221.983C229.684 220.57 229.815 219.16 230.043 217.765C230.484 215.133 231.147 212.543 232.025 210.023C233.233 206.535 234.67 203.129 236.325 199.828C237.212 198.033 238.123 196.321 238.995 194.746C239.133 194.502 239.263 194.265 239.401 194.028C241.061 191.093 242.576 188.694 243.578 187.158C244.351 185.966 244.818 185.293 244.818 185.293L250.388 175.618L268.98 184.322L267.924 198.56L271.13 209.297L272.607 214.242L273.747 218.055L275.506 223.962C275.506 223.962 275.024 223.985 275.598 224.772C278.241 228.282 279.954 232.401 280.579 236.748C280.8 238.407 280.848 240.084 280.725 241.753Z" fill="#7A3092"/>
<path d="M334.418 243.288L334.069 243.175L289.568 228.862L305.966 175.129C306.293 174.059 306.858 173.077 307.62 172.257C308.382 171.437 309.32 170.8 310.364 170.395C311.408 169.99 312.53 169.826 313.646 169.918C314.763 170.009 315.844 170.351 316.808 170.92L345.245 187.702C347.496 189.029 349.209 191.104 350.084 193.564C350.959 196.024 350.94 198.713 350.032 201.161L334.418 243.288Z" fill="#2F2E41"/>
<path d="M334.599 246.704L289.74 232.275L306.138 178.542C306.465 177.472 307.03 176.49 307.792 175.67C308.554 174.85 309.492 174.213 310.536 173.808C311.58 173.403 312.702 173.24 313.818 173.331C314.935 173.422 316.015 173.765 316.98 174.334L346.775 189.192C351.251 191.833 351.146 198.668 349.068 204.276L334.599 246.704Z" fill="#7A3092"/>
<path d="M330.107 250.593C329.074 251.175 327.931 251.536 326.751 251.653C325.571 251.771 324.379 251.641 323.252 251.274L294.579 242.051C292.379 241.334 290.548 239.785 289.476 237.736C288.403 235.688 288.176 233.302 288.841 231.088L303.216 183.984C303.503 183.043 303.976 182.169 304.606 181.412C305.236 180.656 306.011 180.033 306.885 179.58C307.759 179.126 308.715 178.852 309.697 178.773C310.679 178.694 311.666 178.811 312.602 179.118L342.315 188.862C343.731 189.327 345.039 190.07 346.163 191.047C347.286 192.025 348.202 193.218 348.857 194.555C349.511 195.892 349.89 197.347 349.972 198.833C350.054 200.319 349.837 201.806 349.334 203.207L333.964 246.006C333.274 247.949 331.904 249.578 330.107 250.593Z" fill="#3F3D56"/>
<path d="M267.929 175.783C279.271 175.783 288.466 166.6 288.466 155.271C288.466 143.942 279.271 134.759 267.929 134.759C256.587 134.759 247.393 143.942 247.393 155.271C247.393 166.6 256.587 175.783 267.929 175.783Z" fill="#FFB6B6"/>
<path d="M198.485 176.092C200.369 179.741 203.459 182.626 207.231 184.259C208.736 184.944 210.319 185.444 211.944 185.749C212.404 183.929 213.139 182.19 214.125 180.592C213.797 182.393 213.797 184.238 214.125 186.039C216.602 186.242 219.094 185.933 221.445 185.132C223.755 184.347 225.85 183.036 227.564 181.301C229.278 179.567 230.563 177.458 231.319 175.141C232.955 169.704 231.193 163.896 231.054 158.221C230.911 152.545 233.609 145.756 239.25 145.054C243.546 144.518 243.015 144.934 246.102 147.966C241.784 152.757 252.311 173.977 257.959 173.039C261.153 172.509 263.503 169.976 264.135 170.064C267.369 177.976 257.64 189.196 265.356 192.879L264.784 192.123C260.745 185.458 272.696 174.201 268.657 167.537C267.531 165.672 266.36 163.487 267.057 161.424C267.718 159.463 271.067 158.843 271.773 160.627C270.625 156.537 273.831 151.735 278.089 151.318C281.872 150.945 281.654 152.022 285.261 153.004C285.722 151.452 286.386 149.968 287.236 148.59C286.949 150.162 286.913 151.77 287.131 153.354C288.432 153.509 289.748 153.231 290.874 152.562C294.205 150.568 294.304 145.42 292.016 142.286C289.724 139.152 285.884 137.605 282.18 136.434C282.146 128.61 261.066 124.864 257.19 132.139C256.791 126.248 250.031 122.28 244.207 123.281C238.384 124.281 233.79 128.945 230.989 134.144C228.188 139.338 226.798 145.155 224.748 150.688C222.698 156.22 219.767 161.738 214.858 165.02C209.949 168.299 202.655 168.597 198.556 164.347C197.621 166.162 197.128 168.171 197.115 170.211C197.103 172.252 197.572 174.267 198.485 176.092Z" fill="#2F2E41"/>
<path d="M219.556 269.894C219.981 269.554 220.442 269.263 220.931 269.024C228.791 265.116 253.236 254.974 272.349 255.39C309.126 256.19 355.928 296.73 345.036 323.953C336.748 344.668 295.542 356.453 265.463 347.028C223.325 333.822 206.693 280.137 219.556 269.894Z" fill="#3F3D56"/>
<path d="M66.883 419.128C54.866 416.864 44.2288 362.789 67.8719 336.157C75.9724 327.033 86.0767 323.061 99.5172 319.366C176.877 298.093 235.88 318.367 243.809 323.317C251.72 328.255 265.59 402.668 247.854 413.201C237.876 419.128 218.097 422.091 208.298 415.177C193.878 405.003 218.081 378.614 207.309 360.851C195.084 340.694 130.712 333.904 98.4387 353.937C64.0063 375.309 135.028 431.969 66.883 419.128Z" fill="#F2F2F2"/>
<path d="M147.227 327.19H101.318C89.9852 316.341 81.882 305.886 88.3695 297.207C88.3695 294.713 89.3617 292.32 91.1278 290.556C92.8938 288.792 95.2892 287.801 97.7868 287.801H150.759C153.257 287.801 155.652 288.792 157.418 290.556C159.184 292.32 160.176 294.713 160.176 297.207C162.646 307.096 158.233 317.092 147.227 327.19Z" fill="#CCCCCC"/>
<path d="M138.982 275.96C138.547 275.98 138.115 275.866 137.747 275.633C137.379 275.4 137.091 275.059 136.923 274.657C136.754 274.255 136.714 273.812 136.807 273.386C136.899 272.961 137.121 272.574 137.441 272.278L137.587 271.699C137.568 271.653 137.548 271.607 137.529 271.561C137.09 270.525 136.355 269.643 135.415 269.023C134.476 268.404 133.374 268.076 132.248 268.08C131.123 268.084 130.024 268.421 129.089 269.047C128.154 269.673 127.425 270.561 126.994 271.6C125.271 275.745 123.077 279.897 122.537 284.279C122.299 286.216 122.4 288.18 122.834 290.083C118.787 281.266 116.686 271.682 116.672 261.983C116.671 259.549 116.807 257.116 117.078 254.698C117.302 252.715 117.612 250.746 118.01 248.791C120.179 238.185 124.836 228.243 131.598 219.784C134.871 218 137.518 215.257 139.183 211.924C139.785 210.726 140.212 209.448 140.448 208.128C140.078 208.176 139.055 202.56 139.334 202.215C138.819 201.435 137.898 201.047 137.337 200.286C134.542 196.502 130.691 197.163 128.681 202.306C124.387 204.47 124.345 208.06 126.98 211.513C128.656 213.71 128.887 216.682 130.358 219.034C130.206 219.227 130.049 219.415 129.898 219.608C127.131 223.161 124.72 226.976 122.699 230.999C123.191 226.492 122.604 221.934 120.988 217.698C119.35 213.75 116.279 210.426 113.575 207.013C110.327 202.914 103.666 204.703 103.094 209.899C103.088 209.95 103.083 210 103.078 210.05C103.479 210.277 103.872 210.517 104.257 210.771C104.74 211.093 105.115 211.554 105.331 212.093C105.548 212.632 105.597 213.223 105.471 213.79C105.345 214.357 105.051 214.872 104.627 215.269C104.203 215.666 103.668 215.926 103.094 216.014L103.035 216.023C103.178 217.469 103.431 218.902 103.792 220.31C100.323 233.71 107.812 238.59 118.506 238.81C118.742 238.93 118.972 239.051 119.208 239.166C117.178 244.914 115.904 250.901 115.419 256.977C115.145 260.561 115.161 264.162 115.468 267.744L115.45 267.617C114.675 263.634 112.547 260.04 109.427 257.442C104.792 253.639 98.2443 252.239 93.2443 249.183C92.7129 248.842 92.095 248.66 91.4635 248.658C90.8321 248.657 90.2133 248.836 89.6803 249.174C89.1472 249.512 88.7221 249.995 88.4551 250.567C88.1881 251.139 88.0903 251.774 88.1732 252.4C88.1799 252.444 88.1867 252.489 88.1937 252.533C88.939 252.836 89.6647 253.186 90.3666 253.579C90.7683 253.805 91.1614 254.046 91.5461 254.3C92.0294 254.622 92.4039 255.083 92.6205 255.622C92.8371 256.16 92.8857 256.752 92.76 257.319C92.6343 257.886 92.34 258.401 91.9159 258.798C91.4918 259.195 90.9575 259.455 90.3831 259.543L90.3242 259.552C90.2819 259.558 90.2455 259.564 90.2032 259.57C91.4768 262.608 93.2642 265.403 95.4873 267.835C97.6564 279.532 106.973 280.642 116.938 277.236H116.945C118.038 281.982 119.622 286.601 121.672 291.02H138.559C138.62 290.832 138.674 290.639 138.729 290.452C137.166 290.55 135.596 290.456 134.056 290.174C135.309 288.638 136.562 287.09 137.815 285.555C137.843 285.526 137.869 285.496 137.893 285.464C138.529 284.678 139.171 283.898 139.806 283.112L139.806 283.111C139.84 280.702 139.564 278.299 138.983 275.96L138.982 275.96Z" fill="#CCCCCC"/>
<path d="M196.582 324.733C196.862 325.547 197.393 326.252 198.099 326.746C198.805 327.24 199.65 327.498 200.512 327.483L217.354 327.05C218.223 327.033 219.062 326.736 219.748 326.203C220.433 325.67 220.927 324.93 221.157 324.093L223.54 298.638C224.385 299.02 225.306 299.209 226.234 299.191C227.863 299.15 229.408 298.465 230.531 297.286C231.653 296.107 232.261 294.53 232.22 292.904C232.179 291.277 231.493 289.734 230.313 288.612C229.132 287.491 227.554 286.884 225.926 286.925C225.555 286.924 225.185 286.962 224.822 287.04C224.428 286.613 223.948 286.274 223.414 286.044C222.881 285.814 222.305 285.698 221.723 285.704L195.817 286.372C195.602 286.38 195.388 286.407 195.178 286.452C194.61 286.557 194.071 286.784 193.597 287.115C193.124 287.446 192.727 287.875 192.434 288.372C192.14 288.869 191.957 289.423 191.896 289.997C191.835 290.571 191.897 291.152 192.08 291.7L196.582 324.733ZM224.029 296.909L225.725 290.844C225.917 290.143 225.922 289.404 225.737 288.701C225.82 288.701 225.892 288.662 225.975 288.661C227.137 288.638 228.262 289.075 229.102 289.878C229.942 290.681 230.429 291.785 230.457 292.946C230.484 294.107 230.049 295.232 229.247 296.073C228.446 296.915 227.343 297.404 226.18 297.435C225.429 297.459 224.685 297.277 224.029 296.909Z" fill="#CCCCCC"/>
<path d="M195.178 286.452C195.73 289.604 201.935 291.82 209.397 291.435C216.258 291.119 221.868 288.712 222.896 285.86C222.516 285.748 222.12 285.695 221.723 285.704L195.817 286.372C195.602 286.38 195.388 286.407 195.178 286.452Z" fill="white"/>
<path d="M0.901964 420.322L568.098 420.554C568.337 420.554 568.567 420.459 568.736 420.29C568.905 420.121 569 419.892 569 419.653C569 419.414 568.905 419.185 568.736 419.016C568.567 418.847 568.337 418.752 568.098 418.752L0.901964 418.52C0.662747 418.52 0.433331 418.615 0.264179 418.784C0.0950267 418.952 0 419.182 0 419.421C0 419.66 0.0950267 419.889 0.264179 420.058C0.433331 420.227 0.662747 420.322 0.901964 420.322Z" fill="#CACACA"/>
<path d="M319.025 218.979C317.482 219.035 316.023 219.69 314.957 220.805C313.89 221.92 313.302 223.406 313.316 224.948C313.324 225.261 313.358 225.573 313.417 225.881L295.616 236.378L297.771 247.273L320.599 230.261C321.858 229.916 322.967 229.165 323.753 228.125C324.539 227.084 324.958 225.813 324.945 224.51C324.93 223.768 324.77 223.037 324.472 222.357C324.174 221.678 323.746 221.063 323.21 220.549C322.675 220.035 322.044 219.631 321.352 219.361C320.661 219.091 319.923 218.959 319.18 218.974C319.128 218.975 319.077 218.976 319.025 218.979Z" fill="#FFB6B6"/>
<path d="M304.443 244.003C303.967 243.366 303.762 243.099 303.654 243.172C303.375 243.34 303.643 245.591 301.683 249.515C298.923 255.027 269.985 263.469 269.985 263.469L266.422 256.954L250.751 228.323L245.349 205.375C245.16 204.575 245.068 203.755 245.076 202.933C249.892 199.547 255.006 196.607 260.356 194.147C262.494 195.359 264.123 197.298 264.947 199.611L275.735 229.822L280.039 241.884C280.039 241.884 287.633 236.461 290.387 237.457C293.137 238.458 293.919 237.054 292.121 232.557C290.323 228.061 293.022 232.69 296.161 232.984C299.307 233.282 296.161 232.984 297.647 231.076C299.134 229.168 308.741 228.094 308.741 228.094L308.945 228.52L312.669 236.17L313.734 238.368C313.734 238.368 309.787 242.645 308.835 243.498C307.878 244.356 307.583 244.297 308.051 245.275C308.513 246.249 306.097 246.205 304.443 244.003Z" fill="#7A3092"/>
</g>
<defs>
<clipPath id="clip0_23_1389">
<rect width="569" height="421" fill="white"/>
</clipPath>
</defs>
</svg>
