<svg width="538" height="314" viewBox="0 0 538 314" fill="none" xmlns="http://www.w3.org/2000/svg">
<g clip-path="url(#clip0_5_190)">
<path d="M266.679 307.285C262.743 307.282 258.969 305.721 256.186 302.945C253.404 300.169 251.841 296.405 251.841 292.48C251.841 288.555 253.404 284.791 256.186 282.014C258.969 279.238 262.743 277.677 266.679 277.674H487.238C486.129 275.644 484.491 273.949 482.498 272.767C480.505 271.585 478.229 270.961 475.91 270.959H37.4975C31.7777 270.966 26.2944 273.236 22.2524 277.271C18.2104 281.306 15.9404 286.777 15.9411 292.48C15.944 298.182 18.2152 303.65 22.2564 307.684C26.2976 311.719 31.7788 313.99 37.4975 314H475.91C478.229 313.998 480.505 313.374 482.498 312.192C484.491 311.011 486.129 309.316 487.238 307.285L266.679 307.285Z" fill="#CCCCCC"/>
<path d="M487.531 285.832H277.831C277.51 285.832 277.202 285.704 276.976 285.477C276.749 285.251 276.622 284.944 276.622 284.624C276.622 284.304 276.749 283.997 276.976 283.77C277.202 283.544 277.51 283.416 277.831 283.415H487.531C487.852 283.416 488.16 283.544 488.386 283.77C488.613 283.997 488.74 284.304 488.74 284.624C488.74 284.944 488.613 285.251 488.386 285.477C488.16 285.704 487.852 285.832 487.531 285.832Z" fill="#CCCCCC"/>
<path d="M487.531 293.688H277.831C277.509 293.688 277.201 293.561 276.974 293.334C276.746 293.108 276.619 292.8 276.619 292.48C276.619 292.159 276.746 291.852 276.974 291.625C277.201 291.398 277.509 291.271 277.831 291.271H487.531C487.852 291.271 488.161 291.398 488.388 291.625C488.615 291.852 488.743 292.159 488.743 292.48C488.743 292.8 488.615 293.108 488.388 293.334C488.161 293.561 487.852 293.688 487.531 293.688Z" fill="#CCCCCC"/>
<path d="M487.531 301.544H277.831C277.51 301.543 277.202 301.416 276.976 301.189C276.749 300.963 276.622 300.656 276.622 300.336C276.622 300.016 276.749 299.709 276.976 299.482C277.202 299.255 277.51 299.128 277.831 299.127H487.531C487.852 299.128 488.16 299.255 488.386 299.482C488.613 299.709 488.74 300.016 488.74 300.336C488.74 300.656 488.613 300.963 488.386 301.189C488.16 301.416 487.852 301.543 487.531 301.544Z" fill="#CCCCCC"/>
<path d="M209.709 265.588C205.772 265.586 201.998 264.025 199.216 261.248C196.433 258.472 194.87 254.708 194.87 250.783C194.87 246.858 196.433 243.094 199.216 240.317C201.998 237.541 205.772 235.98 209.709 235.977H430.267C429.158 233.947 427.521 232.252 425.527 231.07C423.534 229.889 421.258 229.264 418.939 229.263H-19.4729C-25.1927 229.269 -30.676 231.539 -34.718 235.574C-38.7601 239.61 -41.0302 245.08 -41.0296 250.783C-41.0267 256.485 -38.7554 261.953 -34.7142 265.987C-30.6729 270.022 -25.1916 272.293 -19.4729 272.303H418.939C421.258 272.301 423.534 271.677 425.527 270.495C427.521 269.314 429.158 267.619 430.267 265.588L209.709 265.588Z" fill="#7A3092"/>
<path d="M430.56 244.136H220.86C220.539 244.135 220.232 244.007 220.005 243.781C219.778 243.554 219.651 243.247 219.651 242.927C219.651 242.607 219.778 242.3 220.005 242.073C220.232 241.847 220.539 241.719 220.86 241.718H430.56C430.882 241.718 431.19 241.846 431.418 242.072C431.645 242.299 431.773 242.606 431.773 242.927C431.773 243.248 431.645 243.555 431.418 243.782C431.19 244.008 430.882 244.136 430.56 244.136Z" fill="#CCCCCC"/>
<path d="M430.56 251.992H220.86C220.539 251.992 220.231 251.864 220.003 251.638C219.776 251.411 219.648 251.103 219.648 250.783C219.648 250.462 219.776 250.155 220.003 249.928C220.231 249.702 220.539 249.574 220.86 249.574H430.56C430.882 249.574 431.19 249.702 431.418 249.928C431.645 250.155 431.773 250.462 431.773 250.783C431.773 251.103 431.645 251.411 431.418 251.638C431.19 251.864 430.882 251.992 430.56 251.992Z" fill="#CCCCCC"/>
<path d="M430.56 259.847H220.86C220.539 259.847 220.232 259.719 220.005 259.492C219.778 259.266 219.651 258.959 219.651 258.639C219.651 258.319 219.778 258.012 220.005 257.785C220.232 257.559 220.539 257.431 220.86 257.43H430.56C430.72 257.43 430.878 257.461 431.025 257.521C431.173 257.582 431.306 257.671 431.419 257.783C431.532 257.895 431.622 258.029 431.683 258.176C431.744 258.322 431.775 258.48 431.775 258.639C431.775 258.798 431.744 258.955 431.683 259.102C431.622 259.249 431.532 259.382 431.419 259.494C431.306 259.607 431.173 259.696 431.025 259.756C430.878 259.817 430.72 259.848 430.56 259.847Z" fill="#CCCCCC"/>
<path d="M152.738 222.5C148.802 222.497 145.028 220.936 142.245 218.16C139.463 215.384 137.9 211.62 137.9 207.695C137.9 203.77 139.463 200.006 142.245 197.229C145.028 194.453 148.802 192.892 152.738 192.889H373.297C372.188 190.859 370.55 189.164 368.557 187.982C366.564 186.801 364.288 186.176 361.969 186.174H-76.4437C-82.1635 186.181 -87.6467 188.451 -91.6887 192.486C-95.7307 196.521 -98.0007 201.992 -98 207.695C-97.9971 213.397 -95.7259 218.865 -91.6847 222.899C-87.6435 226.934 -82.1624 229.205 -76.4437 229.215H361.969C364.288 229.213 366.564 228.589 368.557 227.407C370.55 226.226 372.188 224.531 373.297 222.5L152.738 222.5Z" fill="#CCCCCC"/>
<path d="M373.59 201.047H163.89C163.569 201.047 163.261 200.919 163.035 200.692C162.808 200.466 162.681 200.159 162.681 199.839C162.681 199.519 162.808 199.212 163.035 198.985C163.261 198.759 163.569 198.631 163.89 198.63H373.59C373.911 198.63 374.22 198.758 374.447 198.984C374.674 199.211 374.802 199.518 374.802 199.839C374.802 200.159 374.674 200.467 374.447 200.693C374.22 200.92 373.911 201.047 373.59 201.047Z" fill="#CCCCCC"/>
<path d="M373.59 208.903H163.89C163.731 208.903 163.573 208.872 163.426 208.811C163.279 208.751 163.145 208.662 163.033 208.549C162.92 208.437 162.831 208.304 162.77 208.157C162.709 208.011 162.678 207.854 162.678 207.695C162.678 207.536 162.709 207.379 162.77 207.232C162.831 207.086 162.92 206.952 163.033 206.84C163.145 206.728 163.279 206.639 163.426 206.578C163.573 206.517 163.731 206.486 163.89 206.486H373.59C373.749 206.486 373.907 206.517 374.054 206.578C374.201 206.639 374.334 206.728 374.447 206.84C374.56 206.952 374.649 207.086 374.71 207.232C374.771 207.379 374.802 207.536 374.802 207.695C374.802 207.854 374.771 208.011 374.71 208.157C374.649 208.304 374.56 208.437 374.447 208.549C374.334 208.662 374.201 208.751 374.054 208.811C373.907 208.872 373.749 208.903 373.59 208.903Z" fill="#CCCCCC"/>
<path d="M373.59 216.759H163.89C163.568 216.759 163.26 216.632 163.033 216.405C162.805 216.179 162.678 215.871 162.678 215.551C162.678 215.23 162.805 214.923 163.033 214.696C163.26 214.469 163.568 214.342 163.89 214.342H373.59C373.749 214.342 373.907 214.373 374.054 214.434C374.201 214.495 374.334 214.584 374.447 214.696C374.56 214.808 374.649 214.942 374.71 215.088C374.771 215.235 374.802 215.392 374.802 215.551C374.802 215.709 374.771 215.867 374.71 216.013C374.649 216.16 374.56 216.293 374.447 216.405C374.334 216.518 374.201 216.607 374.054 216.667C373.907 216.728 373.749 216.759 373.59 216.759Z" fill="#CCCCCC"/>
<path d="M378.432 130.581C377.282 130.579 376.176 130.142 375.337 129.357C374.498 128.572 373.989 127.499 373.914 126.355L373.241 116.109C373.162 114.913 373.564 113.734 374.357 112.832C375.15 111.931 376.27 111.38 377.47 111.302L457.973 106.045C459.242 105.962 460.515 106.129 461.719 106.537C462.923 106.945 464.035 107.585 464.991 108.421C465.947 109.257 466.728 110.273 467.291 111.41C467.853 112.547 468.185 113.784 468.268 115.049C468.352 116.314 468.184 117.583 467.775 118.784C467.366 119.985 466.724 121.093 465.886 122.047C465.047 123 464.029 123.779 462.888 124.34C461.747 124.901 460.507 125.232 459.238 125.315L378.736 130.571C378.634 130.577 378.533 130.581 378.432 130.581Z" fill="#7A3092"/>
<path d="M394.306 131.902C393.134 131.9 392.007 131.446 391.163 130.634C390.319 129.823 389.822 128.717 389.777 127.549L389.203 112.246C389.181 111.653 389.276 111.061 389.483 110.504C389.69 109.947 390.006 109.437 390.411 109.002C390.816 108.566 391.303 108.215 391.844 107.967C392.385 107.72 392.97 107.581 393.565 107.559L459.765 105.092C460.967 105.047 462.137 105.48 463.019 106.296C463.901 107.112 464.421 108.243 464.466 109.442L465.04 124.744C465.062 125.338 464.967 125.93 464.76 126.486C464.552 127.043 464.237 127.554 463.832 127.989C463.427 128.424 462.94 128.775 462.399 129.023C461.857 129.271 461.272 129.409 460.677 129.431L394.478 131.898C394.421 131.901 394.363 131.902 394.306 131.902Z" fill="#2F2E41"/>
<path d="M471.882 272.964H461.584C460.382 272.962 459.229 272.486 458.379 271.638C457.529 270.79 457.051 269.641 457.049 268.442V182.869C457.051 181.67 457.529 180.521 458.379 179.673C459.229 178.825 460.382 178.349 461.584 178.347H471.882C473.084 178.349 474.237 178.825 475.087 179.673C475.937 180.521 476.415 181.67 476.417 182.869V268.442C476.415 269.641 475.937 270.79 475.087 271.638C474.237 272.486 473.084 272.962 471.882 272.964Z" fill="#2F2E41"/>
<path d="M426.175 227.731L417.369 222.408C416.342 221.786 415.604 220.782 415.318 219.618C415.031 218.454 415.22 217.224 415.842 216.198L460.328 143.018C460.953 141.994 461.959 141.258 463.127 140.973C464.295 140.687 465.528 140.875 466.557 141.495L475.363 146.817C476.391 147.44 477.128 148.443 477.415 149.608C477.701 150.772 477.513 152.002 476.891 153.028L432.404 226.208C431.78 227.232 430.773 227.968 429.605 228.253C428.438 228.539 427.204 228.351 426.175 227.731Z" fill="#2F2E41"/>
<path d="M456.242 89.0422C475.893 89.0422 491.823 73.1583 491.823 53.5646C491.823 33.9709 475.893 18.0871 456.242 18.0871C436.591 18.0871 420.661 33.9709 420.661 53.5646C420.661 73.1583 436.591 89.0422 456.242 89.0422Z" fill="#7A3092"/>
<path d="M436.982 65.6779C435.837 65.3029 434.787 64.6879 433.9 63.8743C433.313 63.2933 432.86 62.5914 432.574 61.8177C432.287 61.0439 432.174 60.2171 432.242 59.3951C432.279 58.8094 432.452 58.2402 432.746 57.732C433.04 57.2239 433.449 56.7905 433.939 56.4657C435.211 55.6518 436.913 55.6494 438.646 56.4108L438.58 42.5609L439.975 42.5543L440.053 58.8363L438.978 58.162C437.731 57.3814 435.95 56.8319 434.692 57.6368C434.381 57.8494 434.124 58.1307 433.94 58.4588C433.756 58.7868 433.65 59.1527 433.631 59.5282C433.584 60.1405 433.67 60.7558 433.882 61.3321C434.095 61.9084 434.43 62.4322 434.864 62.8679C436.405 64.3354 438.653 64.7943 441.216 65.2044L440.995 66.5779C439.633 66.398 438.29 66.0968 436.982 65.6779Z" fill="#2F2E41"/>
<path d="M424.197 41.8612L424.014 43.2403L431.464 44.2214L431.647 42.8422L424.197 41.8612Z" fill="#2F2E41"/>
<path d="M447.713 44.9571L447.531 46.3362L454.981 47.3172L455.164 45.9381L447.713 44.9571Z" fill="#2F2E41"/>
<path d="M485.952 205.828H425.953C424.38 205.827 422.873 205.203 421.761 204.095C420.649 202.986 420.024 201.483 420.022 199.915L432.583 103.872C432.593 102.312 433.222 100.819 434.333 99.7193C435.444 98.6198 436.946 98.0033 438.511 98.0044H459.804C468.309 98.014 476.462 101.387 482.476 107.383C488.49 113.38 491.873 121.51 491.883 129.99V199.915C491.881 201.483 491.256 202.986 490.144 204.095C489.032 205.203 487.525 205.827 485.952 205.828Z" fill="#2F2E41"/>
<path d="M537.574 167.984C537.944 168.774 538.078 169.655 537.958 170.52C537.838 171.385 537.471 172.197 536.899 172.858L530.167 180.627C529.777 181.076 529.303 181.445 528.771 181.711C528.239 181.978 527.659 182.137 527.065 182.181C526.471 182.224 525.875 182.15 525.309 181.963C524.744 181.777 524.221 181.481 523.771 181.092L462.724 128.504C461.761 127.675 460.972 126.666 460.4 125.533C459.829 124.399 459.488 123.165 459.395 121.901C459.302 120.636 459.46 119.365 459.86 118.161C460.26 116.958 460.894 115.844 461.725 114.885C462.556 113.925 463.569 113.138 464.706 112.569C465.842 112 467.08 111.659 468.349 111.567C469.617 111.475 470.891 111.633 472.099 112.032C473.306 112.431 474.422 113.063 475.385 113.892L536.432 166.48C536.915 166.895 537.304 167.407 537.574 167.984Z" fill="#7A3092"/>
<path d="M524.1 150.629C524.471 151.42 524.604 152.301 524.484 153.165C524.365 154.03 523.997 154.842 523.425 155.503L511.926 168.774C511.139 169.68 510.024 170.238 508.825 170.325C507.626 170.412 506.441 170.022 505.53 169.239L455.402 126.056C454.951 125.668 454.581 125.195 454.314 124.665C454.047 124.134 453.887 123.556 453.843 122.964C453.8 122.372 453.874 121.777 454.061 121.213C454.249 120.649 454.545 120.128 454.935 119.679L466.433 106.408C466.823 105.959 467.297 105.591 467.829 105.324C468.361 105.057 468.941 104.898 469.535 104.855C470.129 104.812 470.725 104.885 471.291 105.072C471.856 105.259 472.379 105.555 472.829 105.943L522.958 149.125C523.441 149.541 523.83 150.053 524.1 150.629Z" fill="#2F2E41"/>
<path d="M456.907 32.5229C452.151 28.5982 445.793 32.3101 440.414 31.7833C435.267 31.2793 431.125 26.7636 429.997 21.9043C428.68 16.2352 431.534 10.4764 435.834 6.84475C440.543 2.86721 446.866 1.63118 452.891 2.23643C459.797 2.93012 466.16 6.01311 471.888 9.77943C477.414 13.299 482.514 17.4445 487.085 22.133C491.181 26.4746 494.68 31.676 495.879 37.6C496.968 42.9837 496.329 48.9846 493.213 53.6219C491.559 55.9998 489.319 57.9125 486.708 59.1757C483.987 60.5725 481.075 61.5893 478.444 63.1602C474.464 65.5353 470.645 70.376 471.999 75.3127C472.29 76.3912 472.842 77.3818 473.608 78.1975C474.527 79.1769 476.126 77.8293 475.204 76.8473C473.585 75.1225 473.603 72.781 474.408 70.6699C475.368 68.2901 477.11 66.3057 479.348 65.0421C482.103 63.4015 485.16 62.3632 487.987 60.8628C490.694 59.4898 493.029 57.485 494.792 55.019C498.118 50.2199 499.023 44.0391 498.139 38.3539C497.183 32.2017 493.898 26.6569 489.824 22.0354C485.391 17.006 479.982 12.78 474.467 8.99599C468.549 4.9357 462.031 1.53169 454.869 0.391543C448.661 -0.596792 441.967 0.210901 436.62 3.6754C431.63 6.90928 427.86 12.381 427.59 18.4204C427.504 21.1676 428.153 23.8881 429.472 26.3018C430.791 28.7155 432.73 30.7353 435.092 32.1533C437.514 33.5366 440.31 34.1269 443.086 33.841C446.055 33.5949 449.013 32.6309 452.01 32.8262C453.365 32.8825 454.665 33.3778 455.713 34.237C456.752 35.0945 457.938 33.3733 456.907 32.5229Z" fill="#2F2E41"/>
<path d="M415.068 217.434C415.081 217.356 415.096 217.277 415.113 217.199C415.237 216.618 415.476 216.067 415.815 215.579C416.154 215.09 416.586 214.674 417.088 214.353L425.741 208.788C426.752 208.139 427.98 207.917 429.156 208.17C430.331 208.423 431.357 209.13 432.01 210.137L458.704 251.402C459.356 252.41 459.58 253.634 459.326 254.807C459.072 255.979 458.362 257.002 457.351 257.653L448.698 263.218C447.687 263.866 446.459 264.089 445.284 263.836C444.108 263.583 443.082 262.876 442.429 261.869L415.735 220.604C415.125 219.667 414.887 218.537 415.068 217.434Z" fill="#2F2E41"/>
</g>
<defs>
<clipPath id="clip0_5_190">
<rect width="538" height="314" fill="white"/>
</clipPath>
</defs>
</svg>
